<svg id="SvgjsSvg1001" width="475" height="300" xmlns="http://www.w3.org/2000/svg" version="1.1" xmlns:xlink="http://www.w3.org/1999/xlink" xmlns:svgjs="http://svgjs.com/svgjs"><defs id="SvgjsDefs1002"></defs><g id="SvgjsG1013" transform="matrix(1,0,0,1,203.2475929260254,128.0749969482422)"><path id="SvgjsPath1014" d="M7.0000000476837165 7.349999237060548Q7.0000000476837165 8.224999237060548 8.032500047683715 8.837499237060548Q9.065000047683716 9.449999237060545 10.622500047683715 9.764999237060547Q12.180000047683716 10.079999237060546 14.000000047683717 10.674999237060547Q15.820000047683717 11.269999237060548 17.377500047683714 12.039999237060547Q18.935000047683715 12.809999237060547 19.967500047683714 14.402499237060546Q21.000000047683717 15.994999237060547 21.000000047683717 18.199999237060545Q21.000000047683717 22.434999237060545 18.515000047683717 24.342499237060547Q16.030000047683714 26.249999237060546 10.500000047683717 26.249999237060546Q4.970000047683715 26.249999237060546 2.485000047683716 24.429999237060546Q4.768371586472142e-8 22.609999237060546 4.768371586472142e-8 18.549999237060547L6.3000000476837155 18.549999237060547Q6.3000000476837155 20.194999237060546 7.297500047683716 20.947499237060548Q8.295000047683716 21.699999237060545 10.500000047683717 21.699999237060545Q12.530000047683716 21.699999237060545 13.440000047683716 21.122499237060545Q14.350000047683716 20.544999237060548 14.350000047683716 19.249999237060546Q14.350000047683716 17.919999237060548 12.915000047683716 17.114999237060545Q11.480000047683715 16.309999237060545 9.415000047683716 15.802499237060546Q7.350000047683716 15.294999237060546 5.285000047683716 14.612499237060547Q3.2200000476837154 13.929999237060548 1.7850000476837158 12.372499237060547Q0.35000004768371573 10.814999237060547 0.35000004768371573 8.399999237060548Q0.35000004768371573 4.164999237060545 2.7650000476837158 2.2574992370605464Q5.180000047683716 0.3499992370605476 10.500000047683717 0.3499992370605476Q15.820000047683717 0.3499992370605476 18.235000047683716 2.169999237060548Q20.650000047683715 3.989999237060548 20.650000047683715 8.049999237060547L14.350000047683716 8.049999237060547Q14.350000047683716 6.404999237060547 13.440000047683716 5.652499237060546Q12.530000047683716 4.899999237060548 10.500000047683717 4.899999237060548Q8.680000047683716 4.899999237060548 7.840000047683716 5.477499237060545Q7.0000000476837165 6.054999237060546 7.0000000476837165 7.349999237060548ZM35.700000047683716 25.549999237060547L25.585000047683717 25.549999237060547L25.550000047683717 25.549999237060547L22.400000047683715 8.049999237060547L28.700000047683716 8.049999237060547L30.625000047683717 23.624999237060546L32.200000047683716 8.049999237060547L42.350000047683714 8.049999237060547L43.92500004768372 23.624999237060546L45.850000047683714 8.049999237060547L52.15000004768372 8.049999237060547L49.00000004768371 25.549999237060547L39.200000047683716 25.549999237060547L37.27500004768372 9.974999237060548L35.700000047683716 25.549999237060547ZM52.50000004768371 20.299999237060547Q52.50000004768371 17.184999237060545 54.582500047683716 15.767499237060546Q56.66500004768372 14.349999237060548 61.25000004768371 14.349999237060548L63.700000047683716 14.349999237060548L63.700000047683716 13.649999237060547Q63.700000047683716 12.354999237060547 63.15750004768371 11.777499237060546Q62.615000047683715 11.199999237060547 61.39000004768371 11.199999237060547Q60.200000047683716 11.199999237060547 59.67500004768372 11.689999237060547Q59.15000004768372 12.179999237060548 59.15000004768372 13.299999237060547L53.200000047683716 13.299999237060547Q53.200000047683716 10.359999237060547 55.19500004768371 9.029999237060547Q57.19000004768372 7.6999992370605455 61.600000047683714 7.6999992370605455Q66.01000004768372 7.6999992370605455 68.00500004768372 9.274999237060548Q70.00000004768371 10.849999237060548 70.00000004768371 14.349999237060548L70.00000004768371 25.549999237060547L65.10000004768372 25.549999237060547L63.700000047683716 22.049999237060547Q62.79000004768372 25.89999923706055 58.80000004768372 25.89999923706055Q55.51000004768372 25.89999923706055 54.005000047683716 24.569999237060546Q52.50000004768371 23.239999237060548 52.50000004768371 20.299999237060547ZM63.700000047683716 17.849999237060548L61.950000047683716 17.849999237060548Q60.270000047683716 17.849999237060548 59.53500004768372 18.304999237060546Q58.80000004768372 18.759999237060548 58.80000004768372 19.949999237060545Q58.80000004768372 20.929999237060546 59.29000004768372 21.314999237060547Q59.780000047683714 21.699999237060545 60.90000004768372 21.699999237060545Q62.37000004768372 21.699999237060545 63.03500004768371 20.947499237060548Q63.700000047683716 20.194999237060546 63.700000047683716 18.549999237060547L63.700000047683716 17.849999237060548ZM76.65000004768372 8.049999237060547L79.76500004768371 23.589999237060546L82.25000004768371 8.049999237060547L88.55000004768371 8.049999237060547L85.05000004768371 25.199999237060545Q84.35000004768372 28.699999237060545 82.84500004768371 30.27499923706055Q81.34000004768372 31.849999237060548 78.75000004768371 31.849999237060548L73.15000004768372 31.849999237060548L73.15000004768372 27.999999237060546L77.00000004768371 27.999999237060546Q78.12000004768372 27.999999237060546 78.69750004768372 27.422499237060546Q79.27500004768372 26.84499923706055 79.45000004768372 25.549999237060547L74.55000004768371 25.549999237060547L70.35000004768372 8.049999237060547L76.65000004768372 8.049999237060547ZM109.20000004768372 1.0499992370605469L109.20000004768372 5.9499992370605455L98.00000004768371 5.9499992370605455L98.00000004768371 10.499999237060546L107.80000004768371 10.499999237060546L107.80000004768371 15.399999237060547L98.00000004768371 15.399999237060547L98.00000004768371 25.549999237060547L91.00000004768371 25.549999237060547L91.00000004768371 1.0499992370605469L109.20000004768372 1.0499992370605469ZM117.60000004768372 8.049999237060547L117.60000004768372 25.549999237060547L111.30000004768371 25.549999237060547L111.30000004768371 8.049999237060547L117.60000004768372 8.049999237060547ZM111.79000004768372 0.7524992370605474Q112.63000004768372 -7.629394538355427e-7 114.45000004768372 -7.629394538355427e-7Q116.27000004768371 -7.629394538355427e-7 117.11000004768371 0.7524992370605474Q117.95000004768372 1.5049992370605452 117.95000004768372 3.1499992370605483Q117.95000004768372 4.794999237060548 117.11000004768371 5.547499237060546Q116.27000004768371 6.299999237060547 114.45000004768372 6.299999237060547Q112.63000004768372 6.299999237060547 111.79000004768372 5.547499237060546Q110.95000004768372 4.794999237060548 110.95000004768372 3.1499992370605483Q110.95000004768372 1.5049992370605452 111.79000004768372 0.7524992370605474ZM129.1500000476837 11.899999237060547L129.1500000476837 19.249999237060546Q129.1500000476837 20.019999237060546 129.6400000476837 20.509999237060548Q130.13000004768372 20.999999237060546 130.9000000476837 20.999999237060546L134.0500000476837 20.999999237060546L134.0500000476837 25.549999237060547L128.45000004768372 25.549999237060547Q125.82500004768372 25.549999237060547 124.33750004768372 24.062499237060546Q122.85000004768372 22.574999237060545 122.85000004768372 19.949999237060545L122.85000004768372 11.899999237060547L120.05000004768371 11.899999237060547L120.05000004768371 8.049999237060547L122.85000004768372 8.049999237060547L122.85000004768372 3.499999237060546L129.1500000476837 3.499999237060546L129.1500000476837 8.049999237060547L134.0500000476837 8.049999237060547L134.0500000476837 11.899999237060547L129.1500000476837 11.899999237060547Z " fill="#550069"></path></g><g id="SvgjsG1015" transform="matrix(1,0,0,1,73.24759292602539,62)"><title>0606_lightning_bolt_verti</title><path id="color_1" d="M108.919,69.01093h-7.49631l9.931-13.23-5.34114-8.01167-.00054.00045H81.0212L64.55607,82.20428h.00046l-.00039.0003,5.34114,8.01168h4.15918l-9.60158,19.00253h.00023l-.0003.0003,5.34106,8.01167h4.00922l40.455-40.20785L108.919,69.01123l-.00076.00046ZM82.31615,79.61439H68.66632l13.988-29.25481h18.1741L84.88306,71.60089h17.75438L69.94864,104.0896Z" fill="#550069"></path></g></svg>